<?xml version="1.0" encoding="UTF-8"?>
<svg width="24px" height="24px" viewBox="0 0 24 24" version="1.1" xmlns="http://www.w3.org/2000/svg" xmlns:xlink="http://www.w3.org/1999/xlink">
    <!-- Generator: Sketch 51.2 (57519) - http://www.bohemiancoding.com/sketch -->
    <title>ic_github_24px</title>
    <desc>Created with Sketch.</desc>
    <defs></defs>
    <g id="ic_github_24px" stroke="none" stroke-width="1" fill="none" fill-rule="evenodd">
        <g transform="translate(2.000000, 2.000000)" fill="#6200EE" id="Shape">
            <path d="M10,0.25 C4.48,0.25 0,4.73 0,10.25 C0,14.67 2.87,18.42 6.84,19.74 C7.34,19.83 7.52,19.52 7.52,19.26 C7.52,19.02 7.51,18.39 7.51,17.56 C4.73,18.16 4.14,16.22 4.14,16.22 C3.69,15.06 3.03,14.76 3.03,14.76 C2.12,14.14 3.1,14.15 3.1,14.15 C4.1,14.22 4.63,15.18 4.63,15.18 C5.52,16.7 6.97,16.26 7.54,16 C7.63,15.35 7.89,14.91 8.17,14.66 C5.95,14.41 3.61,13.55 3.61,9.72 C3.61,8.63 4,7.74 4.64,7.04 C4.54,6.79 4.19,5.77 4.74,4.39 C4.74,4.39 5.58,4.12 7.49,5.42 C8.29,5.2 9.14,5.09 9.99,5.08 C10.84,5.08 11.69,5.19 12.49,5.42 C14.4,4.13 15.24,4.39 15.24,4.39 C15.79,5.77 15.44,6.78 15.34,7.04 C15.98,7.74 16.37,8.63 16.37,9.72 C16.37,13.56 14.03,14.41 11.8,14.65 C12.16,14.96 12.48,15.57 12.48,16.5 C12.48,17.84 12.47,18.92 12.47,19.24 C12.47,19.51 12.65,19.82 13.16,19.72 C17.2420559,18.3566033 19.9934028,14.5337215 19.99,10.23 C20,4.72 15.52,0.25 10,0.25 Z"></path>
        </g>
    </g>
</svg>